<?xml version="1.0" encoding="UTF-8" standalone="no"?>
<!--?xml version="1.0" encoding="utf-8"?-->

<!-- Generator: Adobe Illustrator 18.1.1, SVG Export Plug-In . SVG Version: 6.00 Build 0)  -->

<svg
   version="1.1"
   id="_x32_"
   x="0px"
   y="0px"
   viewBox="0 0 512 512"
   style="width: 64px; height: 64px; opacity: 1;"
   xml:space="preserve"
   sodipodi:docname="calendar.svg"
   inkscape:version="1.1.1 (c3084ef, 2021-09-22)"
   xmlns:inkscape="http://www.inkscape.org/namespaces/inkscape"
   xmlns:sodipodi="http://sodipodi.sourceforge.net/DTD/sodipodi-0.dtd"
   xmlns="http://www.w3.org/2000/svg"
   xmlns:svg="http://www.w3.org/2000/svg"><defs
   id="defs15" /><sodipodi:namedview
   id="namedview13"
   pagecolor="#ffffff"
   bordercolor="#666666"
   borderopacity="1.0"
   inkscape:pageshadow="2"
   inkscape:pageopacity="0.0"
   inkscape:pagecheckerboard="0"
   showgrid="false"
   inkscape:zoom="1.7050781"
   inkscape:cx="62.167239"
   inkscape:cy="263.0378"
   inkscape:window-width="1685"
   inkscape:window-height="1081"
   inkscape:window-x="1080"
   inkscape:window-y="25"
   inkscape:window-maximized="0"
   inkscape:current-layer="_x32_" />
<style
   type="text/css"
   id="style2">
	.st0{fill:#4B4B4B;}
</style>
<g
   id="g10"
   style="fill:#ff6600">
	<path
   class="st0"
   d="M149.193,103.525c15.994,0,28.964-12.97,28.964-28.973V28.964C178.157,12.97,165.187,0,149.193,0   C133.19,0,120.22,12.97,120.22,28.964v45.589C120.22,90.555,133.19,103.525,149.193,103.525z"
   style="fill:#ff6600"
   id="path4" />
	<path
   class="st0"
   d="M362.815,103.525c15.995,0,28.964-12.97,28.964-28.973V28.964C391.78,12.97,378.81,0,362.815,0   c-16.002,0-28.972,12.97-28.972,28.964v45.589C333.843,90.555,346.813,103.525,362.815,103.525z"
   style="fill:#ff6600"
   id="path6" />
	<path
   class="st0"
   d="M435.164,41.287h-17.925v33.265c0,30.017-24.415,54.432-54.423,54.432c-30.017,0-54.431-24.415-54.431-54.432   V41.287H203.615v33.265c0,30.017-24.414,54.432-54.422,54.432c-30.016,0-54.432-24.415-54.432-54.432V41.287H76.836   c-38.528,0-69.763,31.234-69.763,69.763v331.187C7.073,480.765,38.309,512,76.836,512h358.328   c38.528,0,69.763-31.235,69.763-69.763V111.05C504.927,72.522,473.691,41.287,435.164,41.287z M135.626,462.317h-41.32   c-17.826,0-32.329-14.503-32.329-32.329v-24.646h73.65V462.317z M135.626,396.855h-73.65v-76.658h73.65V396.855z M135.626,311.711   h-73.65v-76.658h73.65V311.711z M135.626,226.567h-73.65v-55.691h73.65V226.567z M213.138,462.317h-69.026v-56.976h69.026V462.317z    M213.138,396.855h-69.026v-76.658h69.026V396.855z M213.138,311.711h-69.026v-76.658h69.026V311.711z M213.138,226.567h-69.026   v-55.691h69.026V226.567z M290.641,462.317h-69.017v-56.976h69.017V462.317z M290.641,396.855h-69.017v-76.658h69.017V396.855z    M290.641,311.711h-69.017v-76.658h69.017V311.711z M290.641,226.567h-69.017v-55.691h69.017V226.567z M368.152,462.317h-69.025   v-56.976h69.025V462.317z M368.152,396.855h-69.025v-76.658h69.025V396.855z M368.152,311.711h-69.025v-76.658h69.025V311.711z    M368.152,226.567h-69.025v-55.691h69.025V226.567z M450.023,429.988c0,17.826-14.503,32.329-32.329,32.329h-41.056v-56.976h73.385   V429.988z M450.023,396.855h-73.385v-76.658h73.385V396.855z M450.023,311.711h-73.385v-76.658h73.385V311.711z M450.023,226.567   h-73.385v-55.691h73.385V226.567z"
   style="fill:#ff6600"
   id="path8" />
</g>
</svg>
